    <svg width="200" height="200" viewBox="0 0 200 200" fill="none" xmlns="http://www.w3.org/2000/svg">
<mask id="mask0_594_0" style="mask-type:alpha" maskUnits="userSpaceOnUse" x="-1" y="-1" width="201" height="201">
<rect x="-0.140015" y="-0.140015" width="200" height="200" fill="#C4C4C4"/>
</mask>
<g mask="url(#mask0_594_0)">
<mask id="mask1_594_0" style="mask-type:alpha" maskUnits="userSpaceOnUse" x="0" y="0" width="200" height="200">
<rect width="200" height="200" fill="#C4C4C4"/>
</mask>
<g mask="url(#mask1_594_0)">
<rect x="-18.4854" y="99.4854" width="168" height="168" rx="47.8596" transform="rotate(-45 -18.4854 99.4854)" fill="#2FD67A"/>
</g>
<path d="M12.6619 101.76C12.6619 97.3333 13.5685 93.4133 15.3819 90C17.2485 86.5333 19.7552 83.84 22.9019 81.92C26.0485 80 29.5152 79.04 33.3019 79.04C36.4485 79.04 39.2219 79.6533 41.6219 80.88C44.0752 82.0533 46.0485 83.5733 47.5419 85.44V79.68H58.8219V145.12H47.5419V117.92C46.0485 119.84 44.0485 121.44 41.5419 122.72C39.0352 124 36.2085 124.64 33.0619 124.64C29.3285 124.64 25.8885 123.68 22.7419 121.76C19.6485 119.787 17.1952 117.067 15.3819 113.6C13.5685 110.133 12.6619 106.187 12.6619 101.76ZM47.5419 101.84C47.5419 99.12 46.9819 96.7733 45.8619 94.8C44.7419 92.8267 43.2752 91.3333 41.4619 90.32C39.7019 89.3067 37.8085 88.8 35.7819 88.8C33.8085 88.8 31.9152 89.3067 30.1019 90.32C28.3419 91.3333 26.9019 92.8267 25.7819 94.8C24.6619 96.72 24.1019 99.04 24.1019 101.76C24.1019 104.48 24.6619 106.853 25.7819 108.88C26.9019 110.853 28.3419 112.347 30.1019 113.36C31.9152 114.373 33.8085 114.88 35.7819 114.88C37.8085 114.88 39.7019 114.373 41.4619 113.36C43.2752 112.347 44.7419 110.853 45.8619 108.88C46.9819 106.907 47.5419 104.56 47.5419 101.84ZM72.1606 86.56C73.6006 84.2133 75.4673 82.3733 77.7606 81.04C80.1073 79.7067 82.774 79.04 85.7606 79.04V90.8H82.8006C79.2806 90.8 76.614 91.6267 74.8006 93.28C73.0406 94.9333 72.1606 97.8133 72.1606 101.92V124H60.9606V79.68H72.1606V86.56ZM128.104 100.88C128.104 102.48 127.998 103.92 127.784 105.2H95.3844C95.651 108.4 96.771 110.907 98.7444 112.72C100.718 114.533 103.144 115.44 106.024 115.44C110.184 115.44 113.144 113.653 114.904 110.08H126.984C125.704 114.347 123.251 117.867 119.624 120.64C115.998 123.36 111.544 124.72 106.264 124.72C101.998 124.72 98.1577 123.787 94.7444 121.92C91.3844 120 88.7444 117.307 86.8244 113.84C84.9577 110.373 84.0244 106.373 84.0244 101.84C84.0244 97.2533 84.9577 93.2267 86.8244 89.76C88.691 86.2933 91.3044 83.6267 94.6644 81.76C98.0244 79.8933 101.891 78.96 106.264 78.96C110.478 78.96 114.238 79.8667 117.544 81.68C120.904 83.4933 123.491 86.08 125.304 89.44C127.171 92.7467 128.104 96.56 128.104 100.88ZM116.504 97.68C116.451 94.8 115.411 92.5067 113.384 90.8C111.358 89.04 108.878 88.16 105.944 88.16C103.171 88.16 100.824 89.0133 98.9044 90.72C97.0377 92.3733 95.891 94.6933 95.4644 97.68H116.504ZM129.399 101.68C129.399 97.2 130.279 93.2267 132.039 89.76C133.853 86.2933 136.306 83.6267 139.399 81.76C142.493 79.8933 145.933 78.96 149.719 78.96C152.599 78.96 155.346 79.6 157.959 80.88C160.573 82.1067 162.653 83.76 164.199 85.84V64.8H175.559V124H164.199V117.44C162.813 119.627 160.866 121.387 158.359 122.72C155.853 124.053 152.946 124.72 149.639 124.72C145.906 124.72 142.493 123.76 139.399 121.84C136.306 119.92 133.853 117.227 132.039 113.76C130.279 110.24 129.399 106.213 129.399 101.68ZM164.279 101.84C164.279 99.12 163.746 96.8 162.679 94.88C161.613 92.9067 160.173 91.4133 158.359 90.4C156.546 89.3333 154.599 88.8 152.519 88.8C150.439 88.8 148.519 89.3067 146.759 90.32C144.999 91.3333 143.559 92.8267 142.439 94.8C141.373 96.72 140.839 99.0133 140.839 101.68C140.839 104.347 141.373 106.693 142.439 108.72C143.559 110.693 144.999 112.213 146.759 113.28C148.573 114.347 150.493 114.88 152.519 114.88C154.599 114.88 156.546 114.373 158.359 113.36C160.173 112.293 161.613 110.8 162.679 108.88C163.746 106.907 164.279 104.56 164.279 101.84Z" fill="white"/>
</g>
</svg>
